# xmcd
#
# Track frame offsets:
#	150
#	13894
#	31841
#	45682
#	66780
#	81475
#	100759
#	115087
#	130088
#	143977
#	166568
#	179605
#	196217
#	211397
#	226143
#	244106
#	262311
#	278172
#	300937
#	317322
#
# Disc length: 4411 seconds
#
# Revision: 3
# Processed by: cddbd v1.5.2PL0 Copyright (c) Steve Scherf et al.
# Submitted via: audiograbber 1.83.01
#
DISCID=0f113914
DTITLE=Isla Grant - The Essential Isla Grant [Disc 2]
DYEAR=2010
DGENRE=Country
TTITLE0=Mother's Chair
TTITLE1=Partners In Rhyme
TTITLE2=If Only
TTITLE3=Don't Give Up On Me
TTITLE4=Rachel Anna
TTITLE5=The Old Accordian Man
TTITLE6=That's When I Saw The Light
TTITLE7=Lovely Lough Conn
TTITLE8=Flying High
TTITLE9=Sweet Baby Mine
TTITLE10=Love Me Tonight
TTITLE11=My Scotland
TTITLE12=Every Moment Of Every Hour
TTITLE13=When The Day Is Done
TTITLE14=Fiddle On The Wall
TTITLE15=Simply Being You
TTITLE16=Australia
TTITLE17=Living In My Mind
TTITLE18=Twinkle Twinkle Little Star
TTITLE19=Silent Night
EXTD=
EXTT0=
EXTT1=
EXTT2=
EXTT3=
EXTT4=
EXTT5=
EXTT6=
EXTT7=
EXTT8=
EXTT9=
EXTT10=
EXTT11=
EXTT12=
EXTT13=
EXTT14=
EXTT15=
EXTT16=
EXTT17=
EXTT18=
EXTT19=
PLAYORDER=
